<?xml version="1.0" encoding="UTF-8" standalone="no"?>
<!DOCTYPE svg PUBLIC "-//W3C//DTD SVG 1.1//EN" "http://www.w3.org/Graphics/SVG/1.1/DTD/svg11.dtd">
<svg width="100%" height="100%" viewBox="0 0 534 468" version="1.1" xmlns="http://www.w3.org/2000/svg" xmlns:xlink="http://www.w3.org/1999/xlink" xml:space="preserve" xmlns:serif="http://www.serif.com/" style="fill-rule:evenodd;clip-rule:evenodd;stroke-linejoin:round;stroke-miterlimit:2;">
    <g transform="matrix(1,0,0,1,-333,-81.375)">
        <g id="logo" transform="matrix(1.12658,0,0,1.12658,-75.9494,-39.8734)">
            <g transform="matrix(0.713855,0,0,0.713855,77.4578,15.5377)">
                <path d="M898,253.5C898,184.787 842.213,129 773.5,129L524.5,129C455.787,129 400,184.787 400,253.5L400,502.5C400,571.213 455.787,627 524.5,627L773.5,627C842.213,627 898,571.213 898,502.5L898,253.5Z" style="fill:white;"/>
                <path d="M898,253.5C898,184.787 842.213,129 773.5,129L524.5,129C455.787,129 400,184.787 400,253.5L400,502.5C400,571.213 455.787,627 524.5,627L773.5,627C842.213,627 898,571.213 898,502.5L898,253.5ZM879.348,253.5L879.348,502.5C879.348,560.919 831.919,608.348 773.5,608.348C773.5,608.348 524.5,608.348 524.5,608.348C466.081,608.348 418.652,560.919 418.652,502.5C418.652,502.5 418.652,253.5 418.652,253.5C418.652,195.081 466.081,147.652 524.5,147.652C524.5,147.652 773.5,147.652 773.5,147.652C831.919,147.652 879.348,195.081 879.348,253.5Z"/>
            </g>
            <g transform="matrix(0.713855,0,0,0.713855,195.958,74.7877)">
                <path d="M898,253.5C898,184.787 842.213,129 773.5,129L524.5,129C455.787,129 400,184.787 400,253.5L400,502.5C400,571.213 455.787,627 524.5,627L773.5,627C842.213,627 898,571.213 898,502.5L898,253.5Z"/>
                <path d="M898,253.5C898,184.787 842.213,129 773.5,129L524.5,129C455.787,129 400,184.787 400,253.5L400,502.5C400,571.213 455.787,627 524.5,627L773.5,627C842.213,627 898,571.213 898,502.5L898,253.5ZM879.348,253.5L879.348,502.5C879.348,560.919 831.919,608.348 773.5,608.348L524.5,608.348C466.081,608.348 418.652,560.919 418.652,502.5L418.652,253.5C418.652,195.081 466.081,147.652 524.5,147.652L773.5,147.652C831.919,147.652 879.348,195.081 879.348,253.5Z"/>
            </g>
        </g>
    </g>
</svg>
